<svg version="1.1" id="Layer_1" xmlns="http://www.w3.org/2000/svg" xmlns:xlink="http://www.w3.org/1999/xlink" x="0px" y="0px"
	 width="100%" viewBox="0 0 1024 544" enable-background="new 0 0 1024 544" xml:space="preserve">
<path fill="#000000" opacity="1.000000" stroke="none" 
	d="
M510.723328,461.849243 
	C499.809845,452.441742 490.582825,441.924011 481.456451,431.328156 
	C459.193481,405.480438 439.669891,377.747345 424.564667,347.079071 
	C412.405334,322.391846 403.404297,296.581360 402.138519,268.914154 
	C400.904633,241.944977 408.937103,217.365280 425.003937,195.515915 
	C427.127686,192.627762 429.750397,190.103683 430.065826,186.018875 
	C431.257080,170.592300 431.338287,170.663544 416.976532,164.591293 
	C401.945892,158.236298 386.974274,151.741760 371.974609,145.313477 
	C369.633636,144.310211 367.151672,143.312302 367.253967,140.218399 
	C367.345764,137.442535 369.568909,136.470764 371.798157,135.518341 
	C416.968567,116.219803 462.141815,96.927589 507.261810,77.511719 
	C511.229462,75.804367 514.645447,75.697678 518.674805,77.431801 
	C563.941528,96.913467 609.273254,116.244171 654.592468,135.603714 
	C656.823120,136.556610 659.011353,137.646484 658.921204,140.451035 
	C658.841553,142.927948 656.956299,144.506332 654.835754,144.993927 
	C646.345337,146.946198 644.227905,152.226654 645.176208,160.403046 
	C645.957520,167.139587 645.312988,174.045135 645.242676,180.875198 
	C645.210205,184.035278 646.086426,186.541840 648.647766,188.753860 
	C653.573486,193.007950 654.542664,198.295517 651.372375,204.014023 
	C649.775330,206.894608 649.579834,209.486664 650.346252,212.541061 
	C652.208008,219.960663 653.778076,227.453720 655.659607,234.867981 
	C656.347534,237.579102 656.002319,239.287949 653.143982,240.331329 
	C645.537415,243.107956 637.946167,243.735367 630.165344,241.027771 
	C626.855469,239.876007 625.769958,238.035110 626.762146,234.574753 
	C628.366516,228.979141 629.697571,223.303299 631.067383,217.642761 
	C632.377625,212.228241 633.985168,207.095963 630.523682,201.453354 
	C628.104736,197.510254 629.669617,192.717896 633.369812,189.759674 
	C636.646606,187.139984 637.571960,184.040405 637.544373,180.193161 
	C637.495300,173.364395 637.678833,166.532455 637.541748,159.706329 
	C637.440125,154.650375 635.891174,153.448990 631.438110,155.237045 
	C620.625122,159.578796 609.921570,164.193085 599.168091,168.683411 
	C597.081970,169.554550 596.153076,171.045654 596.123535,173.331940 
	C596.010010,182.111664 596.274963,190.038803 602.397339,198.003006 
	C617.904846,218.175781 624.381775,241.939026 623.994751,267.224396 
	C623.691589,287.028534 618.524963,306.020355 611.407593,324.453278 
	C597.144104,361.393280 575.428284,393.790741 550.566345,424.278351 
	C540.658447,436.428223 530.166870,448.033142 518.901611,458.938690 
	C516.703674,461.066467 514.559998,463.219971 510.723328,461.849243 
M444.439148,231.943176 
	C438.503876,245.385971 436.531982,259.412445 438.898773,273.891174 
	C445.539368,314.514191 485.725555,342.169739 523.286194,335.846527 
	C552.819214,330.874756 573.317261,314.536285 583.582581,286.698273 
	C592.989685,261.187622 588.562378,236.807343 571.622437,215.701584 
	C553.961304,193.697296 530.364380,184.027115 502.199219,188.152817 
	C475.503937,192.063202 456.695312,207.280136 444.439148,231.943176 
M504.908325,133.177368 
	C498.161926,132.872437 491.698792,133.763779 485.878387,137.540070 
	C481.370667,140.464706 481.071503,142.839981 484.985046,146.554916 
	C490.799103,152.073990 497.735016,151.265671 504.657776,149.677094 
	C508.072540,148.893478 511.730774,147.736404 511.867004,143.335342 
	C512.006897,138.816681 511.080994,134.625229 504.908325,133.177368 
z"/>
<path fill="#000000" opacity="1.000000" stroke="none" 
	d="
M493.666626,278.515930 
	C476.035736,269.515625 467.586609,251.825897 469.997589,234.565689 
	C472.784027,214.617706 486.889313,199.909241 506.201691,197.035492 
	C523.833984,194.411743 538.687561,200.444229 548.740601,215.288864 
	C558.714355,230.016342 558.956543,245.873184 550.733215,261.667145 
	C547.727966,267.439026 547.867310,266.847534 553.198242,270.629303 
	C560.945312,276.125122 567.300964,283.298950 573.494446,290.452515 
	C576.087585,293.447601 575.733276,297.512665 572.462646,300.341400 
	C569.317932,303.061279 565.561829,303.310303 562.468750,300.429016 
	C556.018982,294.420898 549.846375,288.114899 543.581848,281.909088 
	C543.119629,281.451263 542.728516,280.858185 542.482727,280.255280 
	C540.102844,274.417450 540.074768,274.342499 534.629639,277.348450 
	C521.297974,284.708038 507.784302,285.470978 493.666626,278.515930 
M525.592041,219.793930 
	C533.779480,219.312836 538.227783,223.484894 538.263794,231.741821 
	C538.294800,238.852509 538.270203,245.963440 538.270203,253.386917 
	C540.699402,252.444550 541.576721,250.891373 542.123047,249.152786 
	C543.244263,245.584198 542.851196,241.884064 542.846313,238.233398 
	C542.842712,235.526718 542.557190,232.810104 546.124390,231.573425 
	C544.190002,229.576538 545.049072,226.186874 542.370178,225.571960 
	C538.649231,224.717850 536.831421,221.825607 534.936096,219.282089 
	C529.713867,212.274002 524.282837,206.417374 514.339722,210.037735 
	C513.176575,210.461227 511.693878,210.080948 510.368011,209.969589 
	C506.583557,209.651718 502.856812,208.412781 498.923584,209.279236 
	C499.667389,212.909897 497.854889,214.746094 494.485931,214.375916 
	C490.873596,213.979004 489.824402,215.965683 488.961395,218.733215 
	C488.428772,220.441345 488.098694,222.625000 485.973755,223.012039 
	C481.243225,223.873718 480.518860,227.574570 480.217102,231.210953 
	C479.860596,235.507034 480.436249,239.880280 480.082306,244.176773 
	C479.459961,251.730698 483.280487,257.196594 487.920044,262.374542 
	C489.031494,263.615021 490.351318,265.060577 492.151611,264.545593 
	C495.305420,263.643402 497.791901,265.027802 500.048187,266.656036 
	C508.130127,272.488434 516.262634,271.407623 524.491760,267.192810 
	C527.598694,265.601501 530.551086,263.795502 534.294922,263.909119 
	C536.104614,263.964020 538.240051,263.273621 537.979553,260.830780 
	C537.735657,258.543427 535.733093,258.283661 533.787720,258.217346 
	C528.102661,258.023529 522.435242,258.077881 517.009705,260.053284 
	C514.554626,260.947205 512.203552,261.174988 509.731537,260.225739 
	C504.982574,258.402069 500.029816,258.092316 494.991547,258.200256 
	C488.731232,258.334381 488.180847,257.847778 488.016602,251.475555 
	C487.844940,244.817245 487.884216,238.151398 487.941071,231.489777 
	C488.014954,222.833817 494.418579,217.984787 502.846039,220.107895 
	C512.024353,222.420151 516.294800,222.381409 525.592041,219.793930 
z"/>
</svg>