<svg width="512" height="512" viewBox="0 0 512 512" xmlns="http://www.w3.org/2000/svg">
  <defs>
    <color id="blue-light" value="#4F8FC0"/>
    <color id="blue-dark" value="#2E6C96"/>
    <color id="stroke-color" value="#1F4E6A"/>
    <color id="gold" value="#EFB343"/>
    <color id="teal" value="#5FBFA9"/>
    <color id="white" value="#FFFFFF"/>
  </defs>

  <path d="M256,150 C190,150 140,200 140,270 C140,340 256,480 256,480 Z" fill="#4F8FC0" stroke="none"/>
  <path d="M256,150 C322,150 372,200 372,270 C372,340 256,480 256,480 Z" fill="#2E6C96" stroke="none"/>
  <path d="M256,480 C256,480 140,340 140,270 C140,195 190,150 256,150 C322,150 372,195 372,270 C372,340 256,480 256,480 Z" fill="none" stroke="#1F4E6A" stroke-width="6" stroke-linejoin="round"/>

  <path d="M196,150 L196,165 Q256,190 316,165 L316,150" fill="#4F8FC0" stroke="#1F4E6A" stroke-width="6" stroke-linejoin="round"/>
  <path d="M256,150 L256,177 Q316,165 316,150" fill="#2E6C96" stroke="none"/> <path d="M256,50 L420,110 L256,170 L92,110 Z" fill="#4F8FC0" stroke="#1F4E6A" stroke-width="6" stroke-linejoin="round"/>
  <path d="M256,50 L420,110 L256,170 Z" fill="#2E6C96" stroke="none"/> 
  <line x1="256" y1="50" x2="256" y2="170" stroke="#1F4E6A" stroke-width="3"/>

  <line x1="420" y1="110" x2="420" y2="160" stroke="#EFB343" stroke-width="4"/>
  <circle cx="420" cy="160" r="5" fill="#EFB343" stroke="#Cca32a" stroke-width="1"/>
  <path d="M420,160 L408,200 L432,200 Z" fill="#EFB343" stroke="#Cca32a" stroke-width="1"/>

  <circle cx="256" cy="275" r="85" fill="#FFFFFF" stroke="#1F4E6A" stroke-width="6"/>

  <g transform="translate(256, 275)">
    <rect x="25" y="25" width="12" height="35" rx="4" transform="rotate(-45 31 31)" fill="#1F4E6A"/>
    
    <circle cx="0" cy="0" r="42" fill="none" stroke="#1F4E6A" stroke-width="6"/>
    
    <g transform="translate(0, -2)">
      <path d="M0,15 L0,-15 Q-15,-20 -25,-15 L-25,15 Q-15,10 0,15 Z" fill="#5FBFA9" stroke="#1F4E6A" stroke-width="2" stroke-linejoin="round"/>
      <rect x="-18" y="-10" width="10" height="18" fill="rgba(255,255,255,0.3)" rx="1"/> <path d="M0,15 L0,-15 Q15,-20 25,-15 L25,15 Q15,10 0,15 Z" fill="#5FBFA9" stroke="#1F4E6A" stroke-width="2" stroke-linejoin="round"/>
      <rect x="8" y="-10" width="10" height="18" fill="rgba(255,255,255,0.3)" rx="1"/> <line x1="0" y1="-15" x2="0" y2="15" stroke="#1F4E6A" stroke-width="2"/>
    </g>
  </g>
</svg>